<svg version="1.1" id="Layer_1" xmlns="http://www.w3.org/2000/svg" xmlns:xlink="http://www.w3.org/1999/xlink" x="0px" y="0px"
	 width="100%" viewBox="0 0 390 450" enable-background="new 0 0 390 450" xml:space="preserve">

<path fill="#116DA9" opacity="1.000000" stroke="none" 
	d="
M47.018372,142.062271 
	C46.998566,197.020493 47.000130,251.978775 46.895287,306.936829 
	C46.890095,309.659210 47.857918,310.837982 50.179989,312.144989 
	C71.623627,324.214996 92.936218,336.517456 114.333031,348.671112 
	C130.166168,357.664551 146.063522,366.544983 161.948517,375.446777 
	C163.038818,376.057800 164.264893,376.426514 165.989502,377.140472 
	C165.989502,348.866089 165.989502,321.142578 165.989502,292.349487 
	C176.645554,298.483704 186.522339,304.169312 196.707489,310.463348 
	C197.027252,356.329529 197.038651,401.587280 197.050064,446.845062 
	C191.124893,443.780609 185.099945,440.892914 179.294601,437.616150 
	C165.722198,429.955414 152.268188,422.085205 138.742371,414.341492 
	C120.092468,403.664001 101.444550,392.982605 82.750679,382.382416 
	C67.052155,373.480682 51.280117,364.708679 35.557602,355.849152 
	C24.256767,349.481232 12.983865,343.063751 1.349249,336.834167 
	C1.000000,262.645782 1.000000,188.291550 1.357661,113.496132 
	C13.076793,119.444595 24.489693,125.745255 35.774441,132.267639 
	C40.293583,134.879608 44.530579,137.979736 48.896004,140.857666 
	C48.896004,140.857666 48.506119,140.971649 48.058502,141.094818 
	C47.413380,141.499420 47.215878,141.780853 47.018372,142.062271 
z"/>

<path fill="#224573" opacity="1.000000" stroke="none" 
	d="
M1.000000,111.333328 
	C7.684919,107.462402 14.450578,104.068207 21.038761,100.358803 
	C37.138741,91.293915 53.164822,82.097549 69.205544,72.927681 
	C89.830566,61.137138 110.420547,49.285164 131.064072,37.527142 
	C146.693817,28.624849 162.410202,19.874578 178.031815,10.958157 
	C183.149811,8.036928 188.091232,4.806327 193.056702,1.358605 
	C194.066666,1.000000 195.133347,1.000000 196.599121,1.468657 
	C197.019226,20.908731 197.040222,39.880150 197.061203,58.851570 
	C170.641068,73.441132 144.220886,88.030571 117.800827,102.620300 
	C95.715538,114.816299 73.628685,127.009468 51.553078,139.222977 
	C50.836670,139.619339 50.235897,140.224686 49.238609,140.795135 
	C44.530579,137.979736 40.293583,134.879608 35.774441,132.267639 
	C24.489693,125.745255 13.076793,119.444595 1.357661,113.027473 
	C1.000000,112.555557 1.000000,112.111107 1.000000,111.333328 
z"/>
<path fill="#116DA9" opacity="1.000000" stroke="none" 
	d="
M197.371704,59.022102 
	C197.040222,39.880150 197.019226,20.908731 196.999115,1.468657 
	C198.066666,1.000000 199.133347,1.000000 200.600006,1.000002 
	C202.807983,2.589763 204.409103,4.540050 206.455536,5.714242 
	C230.359833,19.429890 254.313354,33.060154 278.291046,46.647373 
	C293.991455,55.544163 309.791840,64.264854 325.476654,73.188828 
	C346.009430,84.871078 366.477844,96.666557 386.957001,108.442802 
	C389.020935,109.629639 390.968292,111.019257 392.569275,112.696846 
	C380.183472,119.789909 368.149750,126.416672 356.240417,133.259918 
	C352.344452,135.498596 348.771912,138.300110 345.051453,140.844223 
	C331.986969,133.698792 318.884827,126.621124 305.868530,119.388954 
	C292.699493,112.071915 279.653687,104.533058 266.485565,97.214371 
	C244.294525,84.880898 222.049545,72.644485 199.826996,60.367706 
	C199.113449,59.973499 198.397202,59.584213 197.371704,59.022102 
z"/>

<path fill="#FFFFFF" opacity="1.000000" stroke="none" 
	d="
M1915.500000,470.000000 
	C1914.996338,460.323730 1914.992676,450.647491 1914.985229,440.053467 
	C1914.935425,435.741089 1914.889404,432.346466 1914.843506,428.951813 
	C1914.895630,404.123596 1914.972412,379.295410 1914.993530,354.467163 
	C1915.017822,325.968719 1914.992676,297.470184 1914.985352,268.104797 
	C1914.935669,266.141632 1914.889893,265.045410 1914.843994,263.949188 
	C1914.895996,262.122986 1914.993408,260.296783 1914.993530,258.470581 
	C1915.000977,172.959488 1915.000000,87.448402 1915.000000,1.468656 
	C1915.333374,2.333331 1915.955688,3.666214 1915.957764,5.000063 
	C1916.011230,39.333313 1916.000000,73.666664 1916.000000,108.000000 
	C1916.000000,228.666672 1916.000000,349.333344 1915.500000,470.000000 
z"/>

<path fill="#0EA2D7" opacity="1.000000" stroke="none" 
	d="
M345.408142,141.050201 
	C348.771912,138.300110 352.344452,135.498596 356.240417,133.259918 
	C368.149750,126.416672 380.183472,119.789909 392.519928,113.059067 
	C392.913300,141.199173 392.979401,169.359131 392.992401,197.519104 
	C393.012909,242.011780 392.946411,286.504639 393.094238,330.996826 
	C393.106262,334.605072 392.104218,336.783661 389.013397,338.514130 
	C376.502869,345.518463 364.069885,352.661438 351.614655,359.764496 
	C335.343872,369.043518 319.087860,378.348450 302.808960,387.613281 
	C290.351227,394.703369 277.873260,401.758026 265.376190,408.778442 
	C264.883759,409.055054 264.100433,408.813721 263.003021,408.813721 
	C263.003021,393.941895 262.924866,379.156586 263.137512,364.375488 
	C263.156433,363.059418 264.803162,361.316437 266.140106,360.542725 
	C274.739014,355.566376 283.482574,350.841003 292.140625,345.965637 
	C309.885254,335.973541 327.638489,325.995239 345.272888,315.811584 
	C346.643372,315.020111 347.636230,312.741699 347.882538,311.022278 
	C348.303528,308.083282 347.994019,305.039642 347.917694,301.355957 
	C347.707123,300.375275 347.493805,300.151276 347.204071,300.000031 
	C347.144165,255.756210 347.083710,211.512390 347.024933,167.268570 
	C347.015411,160.115997 347.083832,152.962112 346.951721,145.811874 
	C346.923553,144.286499 346.179230,142.774384 345.408142,141.050201 
z"/>
<path fill="#0EA2D7" opacity="1.000000" stroke="none" 
	d="
M197.410370,446.903320 
	C197.038651,401.587280 197.027252,356.329529 197.033203,310.613953 
	C217.806686,298.533661 238.535019,286.860931 259.353119,275.350647 
	C262.034149,273.868317 263.071106,272.190308 263.058777,269.138153 
	C262.957336,243.977646 263.036896,218.816406 262.934570,193.655899 
	C262.927948,192.032516 261.867340,190.413437 261.259888,188.134125 
	C266.636292,184.326569 272.016022,181.117142 277.470825,178.040894 
	C287.664459,172.292191 297.901672,166.620743 308.120758,160.917145 
	C309.080414,162.331955 310.873535,163.743805 310.878601,165.162018 
	C311.028046,206.980286 311.027527,248.799301 310.890320,290.617645 
	C310.885223,292.164246 309.660675,294.353790 308.343597,295.148346 
	C296.070831,302.552063 283.679779,309.761536 271.270508,316.936462 
	C257.877960,324.679901 244.375366,332.235748 231.089600,340.156616 
	C229.787704,340.932800 229.095398,343.689636 229.086334,345.531860 
	C228.959137,371.355591 228.880371,397.181213 229.110992,423.003540 
	C229.152206,427.615784 228.171280,430.138153 223.668243,432.325317 
	C214.766205,436.649200 206.373795,442.022278 197.410370,446.903320 
z"/>
<path fill="#116DA9" opacity="1.000000" stroke="none" 
	d="
M83.007614,161.217041 
	C83.780807,160.839371 84.553993,160.461716 85.806824,160.358582 
	C94.460838,165.390167 102.674217,170.081772 110.797791,174.924042 
	C117.883537,179.147690 124.868042,183.541183 131.897278,187.859650 
	C131.897278,187.859650 131.511276,187.974518 131.063934,188.096558 
	C130.417435,188.500000 130.218277,188.781403 130.019135,189.062805 
	C130.019119,229.494904 130.019119,269.927002 130.019119,311.351349 
	C126.982361,309.695099 124.509903,308.394165 122.082123,307.014587 
	C109.260933,299.729034 96.451012,292.423645 83.228317,284.796265 
	C82.663696,284.253510 82.463890,284.095276 82.220032,283.992676 
	C82.181969,243.640366 82.143913,203.288040 82.327354,162.376694 
	C82.755760,161.658691 82.908684,161.458481 83.007614,161.217041 
z"/>
<path fill="#116DA9" opacity="1.000000" stroke="none" 
	d="
M308.054413,160.563095 
	C297.901672,166.620743 287.664459,172.292191 277.470825,178.040894 
	C272.016022,181.117142 266.636292,184.326569 261.066223,187.793411 
	C254.186661,184.383286 247.379623,180.798187 240.757690,176.898743 
	C226.345947,168.412079 212.028534,159.765167 197.344727,150.559677 
	C197.032898,132.669968 197.048874,115.404335 197.064850,98.138710 
	C214.693390,107.897415 232.320114,117.659439 249.951111,127.413704 
	C262.427155,134.316010 274.943756,141.145905 287.374634,148.128601 
	C294.317139,152.028366 301.121460,156.174118 308.054413,160.563095 
z"/>
<path fill="#224573" opacity="1.000000" stroke="none" 
	d="
M196.720825,98.200317 
	C197.048874,115.404335 197.032898,132.669968 197.036362,150.392700 
	C176.219894,162.635361 155.382202,174.417816 134.555511,186.219681 
	C133.840942,186.624619 133.236557,187.224060 132.239044,187.796249 
	C124.868042,183.541183 117.883537,179.147690 110.797791,174.924042 
	C102.674217,170.081772 94.460838,165.390167 86.134285,160.326218 
	C97.246544,153.558258 108.449089,146.986267 119.788177,140.659012 
	C144.259171,127.004089 168.799973,113.474243 193.313889,99.896294 
	C194.326080,99.335655 195.355453,98.806015 196.720825,98.200317 
z"/>
<path fill="#0EA2D7" opacity="1.000000" stroke="none" 
	d="
M227.125275,207.907074 
	C227.125275,207.907074 227.570526,208.046234 227.878113,208.296051 
	C228.342850,208.755844 228.544754,208.905411 228.791412,208.994568 
	C228.859833,220.310425 229.057938,231.628677 228.849976,242.939453 
	C228.820435,244.545349 227.176025,246.789551 225.668915,247.590958 
	C216.455658,252.490082 207.066345,257.058136 197.371048,261.341583 
	C197.021606,248.316864 197.036835,235.687119 197.049316,223.049530 
	C197.046600,223.041718 197.058807,223.051437 197.415283,223.013107 
	C202.699966,220.302475 207.583817,217.543839 212.569092,214.982620 
	C217.366577,212.517883 222.268982,210.257339 227.125275,207.907074 
z"/>
<path fill="#116DA9" opacity="1.000000" stroke="none" 
	d="
M193.004349,259.833618 
	C185.288116,255.872879 177.586105,251.884048 169.848358,247.965790 
	C166.915512,246.480637 165.803818,244.417633 165.916473,240.959930 
	C166.219162,231.669449 165.909988,222.360016 166.137070,213.065262 
	C166.183380,211.169067 167.511520,209.304184 168.785370,207.594666 
	C177.879684,212.847641 186.437378,217.930847 194.943161,223.428192 
	C194.594162,226.447052 194.140457,229.045013 194.028152,231.657654 
	C193.624527,241.046967 193.336243,250.441223 193.004349,259.833618 
z"/>
<path fill="#116DA9" opacity="1.000000" stroke="none" 
	d="
M226.952209,207.598297 
	C222.268982,210.257339 217.366577,212.517883 212.569092,214.982620 
	C207.583817,217.543839 202.699966,220.302475 197.393097,222.539764 
	C197.030533,212.115311 197.046631,202.125854 197.062729,192.136414 
	C206.968201,197.187454 216.873688,202.238480 226.952209,207.598297 
z"/>
<path fill="#224573" opacity="1.000000" stroke="none" 
	d="
M196.717529,192.197739 
	C197.046631,202.125854 197.030533,212.115311 197.036621,222.578094 
	C197.058807,223.051437 197.046600,223.041718 196.706482,223.028534 
	C195.909271,223.014938 195.452179,223.014496 194.995087,223.014053 
	C186.437378,217.930847 177.879684,212.847641 169.137665,207.490372 
	C178.093033,202.230560 187.232681,197.244812 196.717529,192.197739 
z"/>

<path fill="#116DA9" opacity="1.000000" stroke="none" 
	d="
M194.943161,223.428192 
	C195.452179,223.014496 195.909271,223.014938 196.709198,223.036362 
	C197.036835,235.687119 197.021606,248.316864 197.025589,261.405640 
	C195.895584,261.286957 194.746353,260.709229 193.300751,259.982574 
	C193.336243,250.441223 193.624527,241.046967 194.028152,231.657654 
	C194.140457,229.045013 194.594162,226.447052 194.943161,223.428192 
z"/>
<path fill="#16629A" opacity="1.000000" stroke="none" 
	d="
M47.261040,141.965668 
	C47.215878,141.780853 47.413380,141.499420 47.857811,141.126038 
	C47.904392,141.312408 47.704048,141.590744 47.261040,141.965668 
z"/>
<path fill="#195B91" opacity="1.000000" stroke="none" 
	d="
M82.766891,161.200409 
	C82.908684,161.458481 82.755760,161.658691 82.383148,161.911667 
	C82.070717,161.637894 82.173622,161.363937 82.766891,161.200409 
z"/>
<path fill="#166198" opacity="1.000000" stroke="none" 
	d="
M130.263168,188.968079 
	C130.218277,188.781403 130.417435,188.500000 130.865158,188.128784 
	C130.911560,188.317078 130.709381,188.595200 130.263168,188.968079 
z"/>
<path fill="#0F93CA" opacity="1.000000" stroke="none" 
	d="
M228.824097,208.746704 
	C228.544754,208.905411 228.342850,208.755844 228.096741,208.377304 
	C228.290802,208.305435 228.573792,208.402130 228.824097,208.746704 
z"/>
<path fill="#195B91" opacity="1.000000" stroke="none" 
	d="
M82.202576,284.233398 
	C82.463890,284.095276 82.663696,284.253510 82.911995,284.636597 
	C83.004532,284.805847 82.522202,284.819275 82.522202,284.819275 
	C82.522202,284.819275 82.185127,284.474091 82.202576,284.233398 
z"/>
<path fill="#0F8BC3" opacity="1.000000" stroke="none" 
	d="
M347.162292,300.260132 
	C347.493805,300.151276 347.707123,300.375275 347.893982,300.902069 
	C347.669464,300.928162 347.395020,300.724213 347.162292,300.260132 
z"/>

</svg>