<svg version="1.1" id="Layer_1" xmlns="http://www.w3.org/2000/svg" xmlns:xlink="http://www.w3.org/1999/xlink" x="0px" y="0px"
	 width="100%" viewBox="0 0 1915 469" enable-background="new 0 0 1915 469" xml:space="preserve">

<path fill="#116DA9" opacity="1.000000" stroke="none" 
	d="
M47.018372,142.062271 
	C46.998566,197.020493 47.000130,251.978775 46.895287,306.936829 
	C46.890095,309.659210 47.857918,310.837982 50.179989,312.144989 
	C71.623627,324.214996 92.936218,336.517456 114.333031,348.671112 
	C130.166168,357.664551 146.063522,366.544983 161.948517,375.446777 
	C163.038818,376.057800 164.264893,376.426514 165.989502,377.140472 
	C165.989502,348.866089 165.989502,321.142578 165.989502,292.349487 
	C176.645554,298.483704 186.522339,304.169312 196.707489,310.463348 
	C197.027252,356.329529 197.038651,401.587280 197.050064,446.845062 
	C191.124893,443.780609 185.099945,440.892914 179.294601,437.616150 
	C165.722198,429.955414 152.268188,422.085205 138.742371,414.341492 
	C120.092468,403.664001 101.444550,392.982605 82.750679,382.382416 
	C67.052155,373.480682 51.280117,364.708679 35.557602,355.849152 
	C24.256767,349.481232 12.983865,343.063751 1.349249,336.834167 
	C1.000000,262.645782 1.000000,188.291550 1.357661,113.496132 
	C13.076793,119.444595 24.489693,125.745255 35.774441,132.267639 
	C40.293583,134.879608 44.530579,137.979736 48.896004,140.857666 
	C48.896004,140.857666 48.506119,140.971649 48.058502,141.094818 
	C47.413380,141.499420 47.215878,141.780853 47.018372,142.062271 
z"/>

<path fill="#224573" opacity="1.000000" stroke="none" 
	d="
M1.000000,111.333328 
	C7.684919,107.462402 14.450578,104.068207 21.038761,100.358803 
	C37.138741,91.293915 53.164822,82.097549 69.205544,72.927681 
	C89.830566,61.137138 110.420547,49.285164 131.064072,37.527142 
	C146.693817,28.624849 162.410202,19.874578 178.031815,10.958157 
	C183.149811,8.036928 188.091232,4.806327 193.056702,1.358605 
	C194.066666,1.000000 195.133347,1.000000 196.599121,1.468657 
	C197.019226,20.908731 197.040222,39.880150 197.061203,58.851570 
	C170.641068,73.441132 144.220886,88.030571 117.800827,102.620300 
	C95.715538,114.816299 73.628685,127.009468 51.553078,139.222977 
	C50.836670,139.619339 50.235897,140.224686 49.238609,140.795135 
	C44.530579,137.979736 40.293583,134.879608 35.774441,132.267639 
	C24.489693,125.745255 13.076793,119.444595 1.357661,113.027473 
	C1.000000,112.555557 1.000000,112.111107 1.000000,111.333328 
z"/>
<path fill="#116DA9" opacity="1.000000" stroke="none" 
	d="
M197.371704,59.022102 
	C197.040222,39.880150 197.019226,20.908731 196.999115,1.468657 
	C198.066666,1.000000 199.133347,1.000000 200.600006,1.000002 
	C202.807983,2.589763 204.409103,4.540050 206.455536,5.714242 
	C230.359833,19.429890 254.313354,33.060154 278.291046,46.647373 
	C293.991455,55.544163 309.791840,64.264854 325.476654,73.188828 
	C346.009430,84.871078 366.477844,96.666557 386.957001,108.442802 
	C389.020935,109.629639 390.968292,111.019257 392.569275,112.696846 
	C380.183472,119.789909 368.149750,126.416672 356.240417,133.259918 
	C352.344452,135.498596 348.771912,138.300110 345.051453,140.844223 
	C331.986969,133.698792 318.884827,126.621124 305.868530,119.388954 
	C292.699493,112.071915 279.653687,104.533058 266.485565,97.214371 
	C244.294525,84.880898 222.049545,72.644485 199.826996,60.367706 
	C199.113449,59.973499 198.397202,59.584213 197.371704,59.022102 
z"/>
<path fill="#224573" opacity="1.000000" stroke="none" 
	d="
M1643.449951,470.000000 
	C1645.387085,463.202667 1647.886230,456.441345 1650.084961,449.583618 
	C1650.658936,447.792969 1650.897461,445.479492 1650.268677,443.785309 
	C1645.799561,431.745575 1641.034912,419.815857 1636.446289,407.819794 
	C1635.704590,405.881104 1635.370605,403.786499 1634.842651,401.742950 
	C1643.293213,399.952209 1643.488037,400.146027 1646.006836,407.397339 
	C1649.355103,417.036499 1652.877075,426.615326 1656.570801,436.906433 
	C1660.845459,426.815521 1665.038940,417.265961 1668.937134,407.597351 
	C1671.756836,400.603973 1671.850342,400.375580 1680.185791,401.577362 
	C1679.608521,403.447968 1679.217285,405.275787 1678.497314,406.963470 
	C1669.639526,427.731079 1660.733765,448.478180 1651.920166,469.615295 
	C1649.299927,470.000000 1646.599976,470.000000 1643.449951,470.000000 
z"/>
<path fill="#FFFFFF" opacity="1.000000" stroke="none" 
	d="
M1915.500000,470.000000 
	C1914.996338,460.323730 1914.992676,450.647491 1914.985229,440.053467 
	C1914.935425,435.741089 1914.889404,432.346466 1914.843506,428.951813 
	C1914.895630,404.123596 1914.972412,379.295410 1914.993530,354.467163 
	C1915.017822,325.968719 1914.992676,297.470184 1914.985352,268.104797 
	C1914.935669,266.141632 1914.889893,265.045410 1914.843994,263.949188 
	C1914.895996,262.122986 1914.993408,260.296783 1914.993530,258.470581 
	C1915.000977,172.959488 1915.000000,87.448402 1915.000000,1.468656 
	C1915.333374,2.333331 1915.955688,3.666214 1915.957764,5.000063 
	C1916.011230,39.333313 1916.000000,73.666664 1916.000000,108.000000 
	C1916.000000,228.666672 1916.000000,349.333344 1915.500000,470.000000 
z"/>
<path fill="#224573" opacity="1.000000" stroke="none" 
	d="
M810.000000,113.000000 
	C840.823364,113.000000 871.159302,112.473549 901.465515,113.194305 
	C920.122620,113.638031 938.502808,116.723923 955.439209,125.697601 
	C976.146423,136.669235 987.836121,153.733810 990.996338,176.772781 
	C993.087708,192.019547 992.766052,207.068939 987.183594,221.724579 
	C981.550415,236.513443 970.741150,246.138794 956.927246,252.909058 
	C955.897339,253.413803 954.741089,253.656738 953.696838,254.137314 
	C952.653992,254.617279 951.678284,255.243027 949.998657,256.181854 
	C963.704041,282.191711 977.365784,308.118713 991.316895,334.594971 
	C989.393005,334.771484 988.148560,334.983948 986.903931,334.985168 
	C965.744202,335.005615 944.583984,334.922607 923.425415,335.079926 
	C920.095703,335.104645 918.385925,334.018860 916.953735,331.059296 
	C907.283691,311.076904 897.033142,291.362457 887.895020,271.143433 
	C885.084595,264.925018 881.778564,263.652740 875.700195,263.866119 
	C863.075134,264.309326 850.423706,264.000000 837.099976,264.000000 
	C837.099976,287.714966 837.099976,311.081116 837.099976,334.717957 
	C813.174927,334.717957 789.935425,334.717957 766.347656,334.717957 
	C766.347656,260.984650 766.347656,187.423309 766.347656,113.000000 
	C780.684570,113.000000 795.092285,113.000000 810.000000,113.000000 
M918.206177,199.419693 
	C923.538025,187.288437 915.270508,175.027374 904.178894,173.584457 
	C897.662842,172.736786 891.165833,171.295624 884.633057,171.116974 
	C870.662842,170.734970 856.674988,171.000000 842.694336,171.000000 
	C840.933960,171.000000 839.173584,171.000000 837.287231,171.000000 
	C837.287231,184.961990 837.287231,198.193771 837.287231,212.537491 
	C859.113098,211.968643 880.654724,211.784607 902.143066,210.619370 
	C908.667847,210.265549 914.913879,207.007553 918.206177,199.419693 
z"/>
<path fill="#224573" opacity="1.000000" stroke="none" 
	d="
M1914.544678,263.670166 
	C1914.889893,265.045410 1914.935669,266.141632 1914.912842,267.644348 
	C1913.939453,274.011688 1913.335449,280.036896 1912.076172,285.921844 
	C1907.637451,306.665009 1894.109985,319.757294 1875.296143,327.720490 
	C1861.548462,333.539337 1846.995117,336.499084 1832.024292,336.987610 
	C1819.416260,337.399017 1806.762817,338.464844 1794.202148,337.821381 
	C1773.053589,336.737946 1752.181885,333.630371 1733.038208,323.531952 
	C1712.478760,312.686646 1700.478516,296.160431 1698.965698,272.578369 
	C1698.829346,270.452240 1698.201416,268.359344 1698.036865,266.232849 
	C1697.871582,264.098206 1698.000488,261.940796 1698.000488,259.397644 
	C1720.705200,259.397644 1743.073486,259.397644 1765.427368,259.397644 
	C1767.391235,276.086700 1777.644165,279.501831 1792.363037,281.837860 
	C1799.840332,283.024628 1807.587524,283.188995 1815.168823,282.845917 
	C1822.192993,282.528076 1829.348389,281.597046 1836.102295,279.707428 
	C1844.646240,277.316956 1848.241577,269.631775 1844.153320,262.923492 
	C1842.366821,259.992035 1838.662354,257.368347 1835.315674,256.424774 
	C1827.914551,254.338074 1820.236328,253.018173 1812.586182,252.071899 
	C1788.922729,249.144913 1764.846436,248.844177 1741.963257,241.054398 
	C1726.156616,235.673645 1712.661621,227.121918 1705.260864,211.409576 
	C1701.653687,203.751236 1700.292603,195.545212 1699.766235,186.958054 
	C1699.023315,174.838486 1700.478882,163.281921 1705.395874,152.321686 
	C1714.368530,132.321579 1731.378052,122.153244 1751.396240,116.082687 
	C1774.933350,108.945030 1799.224243,109.080048 1823.352173,110.251999 
	C1841.799561,111.148041 1859.981323,114.693420 1876.604492,123.811531 
	C1896.399048,134.669266 1907.636230,151.290497 1910.995728,173.442947 
	C1911.484985,176.668762 1911.833862,179.915863 1912.308228,183.627640 
	C1910.268555,183.782196 1908.832642,183.984192 1907.396606,183.985748 
	C1888.069824,184.006775 1868.742798,183.957306 1849.416504,184.042191 
	C1846.227417,184.056198 1844.752686,183.464600 1843.573853,179.815018 
	C1841.520264,173.456345 1835.839478,169.894730 1829.628174,168.104248 
	C1814.213013,163.660706 1798.607178,163.351501 1783.261108,168.227341 
	C1779.617798,169.384933 1775.789307,172.142914 1773.615356,175.259399 
	C1769.808105,180.717148 1771.622192,186.746933 1777.826782,189.186493 
	C1784.484863,191.804352 1791.551392,193.816925 1798.621948,194.871567 
	C1821.066284,198.219315 1843.971558,198.545380 1865.936768,205.017868 
	C1886.652344,211.122055 1904.023193,221.502899 1911.030640,243.474747 
	C1913.051514,249.810745 1913.224731,256.736053 1914.544678,263.670166 
z"/>
<path fill="#224573" opacity="1.000000" stroke="none" 
	d="
M709.281128,142.782806 
	C721.370789,157.888748 725.846680,175.061035 726.070679,193.774277 
	C726.248962,208.663605 724.874573,223.178955 718.079712,236.673141 
	C708.968628,254.767380 693.780334,265.235687 674.785583,271.065460 
	C658.285278,276.129669 641.424500,277.277466 624.310364,277.051147 
	C606.832336,276.820038 589.348938,277.000000 571.183716,277.000000 
	C571.183716,296.294983 571.183716,315.328949 571.183716,334.675659 
	C547.262878,334.675659 524.025024,334.675659 500.392853,334.675659 
	C500.392853,260.963226 500.392853,187.290421 500.392853,113.263237 
	C502.125641,113.171379 503.741516,113.011383 505.357483,113.010880 
	C548.838074,112.997269 592.329163,112.430527 635.794800,113.237755 
	C657.877930,113.647873 679.472839,118.110886 697.764038,131.997086 
	C701.836609,135.088913 705.288696,138.998062 709.281128,142.782806 
M571.000000,182.519653 
	C571.000000,195.587692 571.000000,208.655716 571.000000,221.984528 
	C590.821716,221.984528 609.826355,222.708588 628.742615,221.727966 
	C641.188416,221.082764 651.495300,216.365387 653.516174,200.955551 
	C654.953491,189.995773 651.405396,177.746002 638.679016,174.182602 
	C632.089172,172.337433 625.094727,171.356857 618.246094,171.136841 
	C604.108826,170.682678 589.946838,170.991135 575.794983,171.013672 
	C574.350647,171.015976 572.906616,171.207153 571.000000,171.343826 
	C571.000000,174.938721 571.000000,178.233017 571.000000,182.519653 
z"/>
<path fill="#224573" opacity="1.000000" stroke="none" 
	d="
M1202.989502,333.292603 
	C1199.974854,324.643646 1196.850220,316.465088 1194.224487,308.129456 
	C1193.253662,305.047729 1191.985107,303.920746 1188.732056,303.934570 
	C1161.575806,304.050110 1134.418335,304.069855 1107.262451,303.913910 
	C1103.776855,303.893921 1102.300415,305.075531 1101.281860,308.271912 
	C1098.778687,316.128204 1096.035767,323.916382 1093.076782,331.611908 
	C1092.531738,333.029419 1090.526245,334.842804 1089.182373,334.853241 
	C1066.026489,335.033600 1042.868530,334.962158 1019.711182,334.921814 
	C1019.258667,334.921021 1018.806641,334.630493 1017.723999,334.258575 
	C1019.065796,330.680450 1020.346497,327.177582 1021.689148,323.698639 
	C1032.792847,294.928253 1043.879639,266.151306 1055.028442,237.398361 
	C1064.627197,212.642609 1074.312256,187.920273 1083.936890,163.174484 
	C1089.974854,147.650131 1095.913574,132.086548 1102.080933,116.613914 
	C1102.667480,115.142494 1104.562012,113.164902 1105.861206,113.155983 
	C1134.664673,112.958069 1163.469971,113.004539 1192.394287,113.004539 
	C1220.981689,186.867661 1249.473755,260.484436 1278.167236,334.621857 
	C1276.234985,334.775848 1274.829224,334.984192 1273.423340,334.985535 
	C1251.597900,335.006165 1229.772461,335.027557 1207.947388,334.943939 
	C1206.322388,334.937714 1204.700684,334.133820 1202.989502,333.292603 
M1169.850464,238.701096 
	C1162.698853,218.167343 1155.547119,197.633575 1147.985718,175.923294 
	C1138.790039,202.092087 1130.094727,226.836960 1121.402466,251.573273 
	C1139.315918,251.573273 1156.517578,251.573273 1174.341187,251.573273 
	C1172.756226,247.161453 1171.376709,243.321884 1169.850464,238.701096 
z"/>
<path fill="#224573" opacity="1.000000" stroke="none" 
	d="
M1443.254150,298.755005 
	C1437.229492,291.306305 1431.458862,284.112579 1425.082642,276.163727 
	C1420.585693,281.506470 1416.394409,286.292267 1412.416504,291.249420 
	C1401.163330,305.273132 1390.021240,319.385986 1378.740845,333.387665 
	C1378.039307,334.258575 1376.524414,334.927094 1375.387329,334.927948 
	C1349.231323,334.947693 1323.075317,334.861877 1296.919312,334.784119 
	C1296.792847,334.783752 1296.666748,334.618011 1295.903687,334.083252 
	C1325.178101,297.600739 1354.423828,261.154053 1383.805664,224.537613 
	C1354.202271,187.621216 1324.655762,150.775818 1294.363037,113.000000 
	C1303.286987,113.000000 1310.741211,113.000000 1318.195557,113.000000 
	C1336.526855,113.000000 1354.859253,113.111916 1373.188232,112.904556 
	C1376.807129,112.863609 1379.184814,114.188179 1381.247070,116.790787 
	C1395.180786,134.374237 1409.118896,151.954330 1423.056885,169.534561 
	C1423.677856,170.317734 1424.310181,171.091980 1425.433350,172.486298 
	C1431.211060,165.373932 1436.611328,158.797150 1441.934448,152.158417 
	C1451.944702,139.674149 1461.874634,127.125183 1471.963867,114.705223 
	C1472.755615,113.730461 1474.525635,113.077133 1475.843506,113.072975 
	C1501.339844,112.992584 1526.836548,113.028976 1552.333252,113.065910 
	C1552.761963,113.066536 1553.190186,113.371109 1554.348267,113.810974 
	C1550.099487,119.213692 1546.097168,124.352325 1542.042725,129.449341 
	C1529.308838,145.457306 1516.579712,161.469162 1503.802002,177.442169 
	C1492.563843,191.490601 1481.359741,205.568649 1469.912598,219.445572 
	C1467.446167,222.435425 1467.187988,224.274460 1469.758545,227.409409 
	C1481.368042,241.567459 1492.665161,255.981262 1504.104492,270.279205 
	C1515.343140,284.326263 1526.617920,298.344299 1537.875977,312.375732 
	C1543.618042,319.532379 1549.358398,326.690460 1555.790161,334.708801 
	C1552.927979,334.840454 1551.193970,334.988495 1549.460083,334.989655 
	C1526.462646,335.005127 1503.464111,334.869476 1480.468872,335.095245 
	C1474.980103,335.149109 1471.033325,334.224396 1467.475464,329.268829 
	C1459.979736,318.828308 1451.552856,309.056335 1443.254150,298.755005 
z"/>
<path fill="#224573" opacity="1.000000" stroke="none" 
	d="
M1587.000000,178.000000 
	C1587.000000,156.218735 1587.000000,134.937485 1587.000000,113.329971 
	C1610.723022,113.329971 1633.958496,113.329971 1657.597656,113.329971 
	C1657.597656,187.009567 1657.597656,260.674377 1657.597656,334.669922 
	C1634.277222,334.669922 1611.041870,334.669922 1587.000000,334.669922 
	C1587.000000,282.605682 1587.000000,230.552841 1587.000000,178.000000 
z"/>
<path fill="#0EA2D7" opacity="1.000000" stroke="none" 
	d="
M345.408142,141.050201 
	C348.771912,138.300110 352.344452,135.498596 356.240417,133.259918 
	C368.149750,126.416672 380.183472,119.789909 392.519928,113.059067 
	C392.913300,141.199173 392.979401,169.359131 392.992401,197.519104 
	C393.012909,242.011780 392.946411,286.504639 393.094238,330.996826 
	C393.106262,334.605072 392.104218,336.783661 389.013397,338.514130 
	C376.502869,345.518463 364.069885,352.661438 351.614655,359.764496 
	C335.343872,369.043518 319.087860,378.348450 302.808960,387.613281 
	C290.351227,394.703369 277.873260,401.758026 265.376190,408.778442 
	C264.883759,409.055054 264.100433,408.813721 263.003021,408.813721 
	C263.003021,393.941895 262.924866,379.156586 263.137512,364.375488 
	C263.156433,363.059418 264.803162,361.316437 266.140106,360.542725 
	C274.739014,355.566376 283.482574,350.841003 292.140625,345.965637 
	C309.885254,335.973541 327.638489,325.995239 345.272888,315.811584 
	C346.643372,315.020111 347.636230,312.741699 347.882538,311.022278 
	C348.303528,308.083282 347.994019,305.039642 347.917694,301.355957 
	C347.707123,300.375275 347.493805,300.151276 347.204071,300.000031 
	C347.144165,255.756210 347.083710,211.512390 347.024933,167.268570 
	C347.015411,160.115997 347.083832,152.962112 346.951721,145.811874 
	C346.923553,144.286499 346.179230,142.774384 345.408142,141.050201 
z"/>
<path fill="#0EA2D7" opacity="1.000000" stroke="none" 
	d="
M197.410370,446.903320 
	C197.038651,401.587280 197.027252,356.329529 197.033203,310.613953 
	C217.806686,298.533661 238.535019,286.860931 259.353119,275.350647 
	C262.034149,273.868317 263.071106,272.190308 263.058777,269.138153 
	C262.957336,243.977646 263.036896,218.816406 262.934570,193.655899 
	C262.927948,192.032516 261.867340,190.413437 261.259888,188.134125 
	C266.636292,184.326569 272.016022,181.117142 277.470825,178.040894 
	C287.664459,172.292191 297.901672,166.620743 308.120758,160.917145 
	C309.080414,162.331955 310.873535,163.743805 310.878601,165.162018 
	C311.028046,206.980286 311.027527,248.799301 310.890320,290.617645 
	C310.885223,292.164246 309.660675,294.353790 308.343597,295.148346 
	C296.070831,302.552063 283.679779,309.761536 271.270508,316.936462 
	C257.877960,324.679901 244.375366,332.235748 231.089600,340.156616 
	C229.787704,340.932800 229.095398,343.689636 229.086334,345.531860 
	C228.959137,371.355591 228.880371,397.181213 229.110992,423.003540 
	C229.152206,427.615784 228.171280,430.138153 223.668243,432.325317 
	C214.766205,436.649200 206.373795,442.022278 197.410370,446.903320 
z"/>
<path fill="#116DA9" opacity="1.000000" stroke="none" 
	d="
M83.007614,161.217041 
	C83.780807,160.839371 84.553993,160.461716 85.806824,160.358582 
	C94.460838,165.390167 102.674217,170.081772 110.797791,174.924042 
	C117.883537,179.147690 124.868042,183.541183 131.897278,187.859650 
	C131.897278,187.859650 131.511276,187.974518 131.063934,188.096558 
	C130.417435,188.500000 130.218277,188.781403 130.019135,189.062805 
	C130.019119,229.494904 130.019119,269.927002 130.019119,311.351349 
	C126.982361,309.695099 124.509903,308.394165 122.082123,307.014587 
	C109.260933,299.729034 96.451012,292.423645 83.228317,284.796265 
	C82.663696,284.253510 82.463890,284.095276 82.220032,283.992676 
	C82.181969,243.640366 82.143913,203.288040 82.327354,162.376694 
	C82.755760,161.658691 82.908684,161.458481 83.007614,161.217041 
z"/>
<path fill="#116DA9" opacity="1.000000" stroke="none" 
	d="
M308.054413,160.563095 
	C297.901672,166.620743 287.664459,172.292191 277.470825,178.040894 
	C272.016022,181.117142 266.636292,184.326569 261.066223,187.793411 
	C254.186661,184.383286 247.379623,180.798187 240.757690,176.898743 
	C226.345947,168.412079 212.028534,159.765167 197.344727,150.559677 
	C197.032898,132.669968 197.048874,115.404335 197.064850,98.138710 
	C214.693390,107.897415 232.320114,117.659439 249.951111,127.413704 
	C262.427155,134.316010 274.943756,141.145905 287.374634,148.128601 
	C294.317139,152.028366 301.121460,156.174118 308.054413,160.563095 
z"/>
<path fill="#224573" opacity="1.000000" stroke="none" 
	d="
M196.720825,98.200317 
	C197.048874,115.404335 197.032898,132.669968 197.036362,150.392700 
	C176.219894,162.635361 155.382202,174.417816 134.555511,186.219681 
	C133.840942,186.624619 133.236557,187.224060 132.239044,187.796249 
	C124.868042,183.541183 117.883537,179.147690 110.797791,174.924042 
	C102.674217,170.081772 94.460838,165.390167 86.134285,160.326218 
	C97.246544,153.558258 108.449089,146.986267 119.788177,140.659012 
	C144.259171,127.004089 168.799973,113.474243 193.313889,99.896294 
	C194.326080,99.335655 195.355453,98.806015 196.720825,98.200317 
z"/>
<path fill="#224573" opacity="1.000000" stroke="none" 
	d="
M1867.395996,434.182678 
	C1863.059814,446.052216 1849.480347,453.359924 1835.707642,444.386810 
	C1833.060913,445.467804 1831.158447,446.913208 1829.494629,446.677094 
	C1828.474243,446.532318 1827.118896,443.816803 1827.106323,442.246185 
	C1826.945557,422.095459 1827.023071,401.942932 1826.974243,381.791016 
	C1826.967407,378.960297 1827.312012,376.948700 1830.928467,376.938873 
	C1834.424438,376.929413 1835.084961,378.685577 1835.033813,381.648895 
	C1834.922241,388.127045 1834.999268,394.608459 1834.999268,401.047516 
	C1839.834839,400.683777 1844.377563,400.098907 1848.926147,400.048645 
	C1859.633911,399.930206 1868.140747,407.395203 1868.845825,418.107513 
	C1869.187622,423.300446 1868.058350,428.590210 1867.395996,434.182678 
M1849.472412,407.786591 
	C1845.952637,408.037598 1842.419678,408.173676 1838.917114,408.575165 
	C1836.005127,408.909027 1834.763672,410.548065 1834.930054,413.688599 
	C1835.193970,418.669128 1835.286743,423.694824 1834.923584,428.662811 
	C1834.519165,434.196625 1837.930298,436.781433 1841.992432,438.949738 
	C1845.891479,441.030945 1850.141968,441.129272 1853.671265,438.544128 
	C1859.483765,434.286652 1861.760986,428.048767 1860.896973,421.031189 
	C1860.113647,414.668213 1856.553711,410.075623 1849.472412,407.786591 
z"/>
<path fill="#0EA2D7" opacity="1.000000" stroke="none" 
	d="
M227.125275,207.907074 
	C227.125275,207.907074 227.570526,208.046234 227.878113,208.296051 
	C228.342850,208.755844 228.544754,208.905411 228.791412,208.994568 
	C228.859833,220.310425 229.057938,231.628677 228.849976,242.939453 
	C228.820435,244.545349 227.176025,246.789551 225.668915,247.590958 
	C216.455658,252.490082 207.066345,257.058136 197.371048,261.341583 
	C197.021606,248.316864 197.036835,235.687119 197.049316,223.049530 
	C197.046600,223.041718 197.058807,223.051437 197.415283,223.013107 
	C202.699966,220.302475 207.583817,217.543839 212.569092,214.982620 
	C217.366577,212.517883 222.268982,210.257339 227.125275,207.907074 
z"/>
<path fill="#224573" opacity="1.000000" stroke="none" 
	d="
M1302.434570,443.721436 
	C1300.899048,442.672180 1299.589111,441.921143 1298.495972,440.930817 
	C1296.781128,439.377045 1294.699463,437.861572 1297.250854,435.217072 
	C1299.380859,433.009430 1301.189453,432.193909 1304.057861,434.420441 
	C1308.529663,437.891693 1313.417969,440.433075 1319.517700,440.077393 
	C1326.231934,439.685822 1329.715088,437.443695 1331.223633,431.543762 
	C1332.231445,427.602051 1329.596680,422.566589 1324.728271,419.959839 
	C1318.766968,416.768005 1312.634766,413.896973 1306.601562,410.837769 
	C1299.903564,407.441467 1295.909180,399.370819 1297.041260,391.652527 
	C1298.075806,384.600037 1304.661255,378.575470 1311.949097,376.876709 
	C1319.283081,375.167114 1326.037842,376.407867 1332.629272,379.363159 
	C1335.055420,380.450836 1338.209595,381.473053 1336.230713,385.534454 
	C1334.291626,389.513672 1331.858887,387.509949 1329.171753,386.680817 
	C1325.444824,385.530762 1321.596436,384.330872 1317.746826,384.117950 
	C1310.807739,383.734131 1307.068237,386.705475 1305.677368,392.667603 
	C1304.702148,396.848755 1307.460327,401.622162 1312.786011,404.321594 
	C1318.536743,407.236450 1324.524170,409.692352 1330.224365,412.697357 
	C1340.601318,418.167938 1343.907471,431.706604 1336.571045,440.544708 
	C1330.818848,447.474304 1322.507568,449.010315 1313.939087,447.732819 
	C1310.107178,447.161469 1306.478516,445.227753 1302.434570,443.721436 
z"/>
<path fill="#224573" opacity="1.000000" stroke="none" 
	d="
M1379.270508,440.008179 
	C1382.429810,439.007599 1385.335449,438.290192 1387.915161,436.946838 
	C1390.881104,435.402405 1392.496338,436.416656 1393.988892,438.927856 
	C1395.791016,441.959747 1393.727905,442.992279 1391.571777,444.156891 
	C1382.920532,448.829742 1373.966675,450.088531 1365.061401,445.383575 
	C1353.186279,439.109436 1351.976685,422.748810 1356.133667,412.531830 
	C1362.046875,397.998169 1380.839600,396.480682 1390.897827,404.583221 
	C1395.146729,408.005951 1399.656372,416.994843 1396.166504,425.997375 
	C1385.060059,425.997375 1373.791870,425.997375 1362.528198,425.997375 
	C1362.568970,434.823029 1372.078247,442.063446 1379.270508,440.008179 
M1371.215332,408.376038 
	C1367.395996,410.846680 1363.614746,413.345306 1363.087280,418.565491 
	C1372.016479,418.565491 1380.377075,418.565491 1388.813721,418.565491 
	C1386.858154,409.485901 1380.366943,405.601318 1371.215332,408.376038 
z"/>
<path fill="#116DA9" opacity="1.000000" stroke="none" 
	d="
M193.004349,259.833618 
	C185.288116,255.872879 177.586105,251.884048 169.848358,247.965790 
	C166.915512,246.480637 165.803818,244.417633 165.916473,240.959930 
	C166.219162,231.669449 165.909988,222.360016 166.137070,213.065262 
	C166.183380,211.169067 167.511520,209.304184 168.785370,207.594666 
	C177.879684,212.847641 186.437378,217.930847 194.943161,223.428192 
	C194.594162,226.447052 194.140457,229.045013 194.028152,231.657654 
	C193.624527,241.046967 193.336243,250.441223 193.004349,259.833618 
z"/>
<path fill="#224573" opacity="1.000000" stroke="none" 
	d="
M1808.000000,441.718628 
	C1807.198608,443.762299 1806.512085,446.573975 1805.572021,446.661377 
	C1803.614380,446.843414 1801.522583,445.583832 1799.963623,445.073181 
	C1794.951050,446.065063 1790.097412,447.519958 1785.164429,447.876068 
	C1779.046753,448.317627 1775.060181,445.048737 1772.925659,439.101959 
	C1770.618286,432.673981 1772.071167,425.268341 1776.450195,421.842255 
	C1781.970459,417.523315 1788.196655,416.076324 1795.093140,417.516113 
	C1796.486084,417.806946 1797.932617,417.842102 1799.348267,417.994507 
	C1800.293457,409.283112 1796.515015,405.858154 1788.541138,407.712341 
	C1785.982056,408.307434 1783.447510,409.305176 1780.871216,409.416992 
	C1779.368408,409.482239 1776.641479,408.316925 1776.519775,407.424988 
	C1776.290894,405.747406 1777.337280,402.429962 1778.224731,402.298431 
	C1785.194458,401.265381 1792.299072,400.037689 1799.268311,400.451080 
	C1804.926880,400.786713 1807.877808,407.002563 1807.978882,415.786407 
	C1808.076538,424.274200 1808.000000,432.764008 1808.000000,441.718628 
M1790.207764,439.997711 
	C1792.488525,439.125214 1794.918213,438.515076 1797.018188,437.323761 
	C1800.983154,435.074249 1800.489990,430.977875 1799.650391,427.584290 
	C1799.340942,426.333740 1796.029663,425.798004 1794.061768,424.999756 
	C1793.308716,424.694305 1792.494995,424.458923 1791.689697,424.374878 
	C1785.596558,423.738770 1780.138428,427.475952 1780.011475,432.326721 
	C1779.889038,437.015686 1783.467529,439.951233 1790.207764,439.997711 
z"/>
<path fill="#224573" opacity="1.000000" stroke="none" 
	d="
M1505.998291,405.335510 
	C1506.000000,417.943481 1506.088135,430.085785 1505.892456,442.223480 
	C1505.866943,443.805725 1504.552124,446.521271 1503.533569,446.671539 
	C1501.873901,446.916382 1499.966064,445.478729 1498.466187,444.873444 
	C1493.769531,445.868500 1488.771362,447.615021 1483.702271,447.853638 
	C1474.111938,448.305023 1468.582397,442.931030 1468.114868,432.656281 
	C1467.647705,422.388000 1468.012329,412.081818 1468.012329,401.399109 
	C1470.709961,401.399109 1473.067383,401.399109 1476.000000,401.399109 
	C1476.000000,409.328766 1475.920410,417.100647 1476.044434,424.869232 
	C1476.086060,427.477692 1476.452148,430.120117 1477.008301,432.673340 
	C1478.272217,438.475006 1481.370972,440.825562 1486.552979,440.216339 
	C1493.180908,439.437134 1497.962402,435.261688 1497.987061,430.094238 
	C1498.032227,420.641968 1498.000000,411.189331 1498.000000,401.295929 
	C1501.421265,401.603851 1505.581787,398.687439 1505.998291,405.335510 
z"/>
<path fill="#224573" opacity="1.000000" stroke="none" 
	d="
M1749.951660,439.000000 
	C1752.940308,439.005707 1755.443604,438.907654 1757.933716,439.045410 
	C1760.582031,439.191925 1762.187866,440.317749 1762.049683,443.410217 
	C1761.919067,446.331573 1760.437256,447.034515 1757.873413,447.020538 
	C1747.550537,446.964294 1737.227051,446.960022 1726.904297,447.020966 
	C1724.180908,447.037048 1722.976196,445.949890 1722.981812,443.177490 
	C1723.023193,422.364777 1723.032349,401.551941 1722.977417,380.739288 
	C1722.968628,377.456482 1724.794678,377.010315 1727.477783,376.950012 
	C1730.557739,376.880859 1732.062256,377.817200 1732.042969,381.196838 
	C1731.945557,398.179504 1731.999512,415.163055 1732.000122,432.146271 
	C1732.000122,434.135406 1732.000000,436.124573 1732.000000,439.000000 
	C1737.971680,439.000000 1743.716064,439.000000 1749.951660,439.000000 
z"/>
<path fill="#224573" opacity="1.000000" stroke="none" 
	d="
M1419.986328,427.856140 
	C1423.643311,441.671936 1437.787964,443.799927 1445.841797,434.874115 
	C1446.674805,433.951019 1449.065918,434.433777 1450.734131,434.264221 
	C1450.686157,436.480499 1451.521484,439.360901 1450.439575,440.799774 
	C1445.365967,447.547333 1434.622559,449.994904 1426.059937,446.930237 
	C1415.585571,443.181305 1410.514038,434.560364 1411.001221,421.332367 
	C1411.340088,412.129639 1418.754028,401.997467 1427.780029,400.387543 
	C1435.597046,398.993225 1443.888306,398.935028 1449.936646,405.671936 
	C1451.056030,406.918640 1450.619629,409.562042 1450.901245,411.560822 
	C1448.899902,411.508759 1446.359741,412.225098 1444.993652,411.267181 
	C1439.972412,407.746429 1434.972290,405.534729 1428.991577,408.539978 
	C1422.804443,411.648956 1420.179565,417.209534 1419.111938,423.651154 
	C1418.914917,424.840729 1419.653564,426.185425 1419.986328,427.856140 
z"/>
<path fill="#224573" opacity="1.000000" stroke="none" 
	d="
M1914.543213,428.804626 
	C1914.889404,432.346466 1914.935425,435.741089 1914.912598,439.592987 
	C1907.128784,450.585144 1891.366577,451.177399 1883.201782,441.239166 
	C1885.697144,435.021149 1885.593018,435.238495 1891.399902,438.020172 
	C1894.101685,439.314392 1897.346558,440.283752 1900.253052,440.080841 
	C1902.495483,439.924347 1905.803101,438.102753 1906.390503,436.292450 
	C1906.898560,434.726959 1904.729614,431.466003 1902.889893,430.133301 
	C1898.765991,427.145599 1894.133179,424.851105 1889.666626,422.347351 
	C1883.014526,418.618561 1883.355469,414.207062 1884.312378,408.764069 
	C1885.305176,403.116333 1890.153564,399.836884 1896.520386,400.074188 
	C1900.760010,400.232208 1905.046753,400.787994 1909.169434,401.767792 
	C1911.493286,402.320099 1913.902222,403.774994 1912.397461,407.223297 
	C1911.070557,410.264130 1909.131226,410.498932 1906.372681,409.240631 
	C1904.430664,408.354736 1902.224121,407.115143 1900.298218,407.352478 
	C1897.590088,407.686188 1895.032715,409.242523 1892.411011,410.276062 
	C1893.658569,412.532471 1894.395020,415.456818 1896.270874,416.892120 
	C1899.244385,419.167175 1903.142090,420.190826 1906.344727,422.223022 
	C1909.191895,424.029755 1911.626221,426.487244 1914.543213,428.804626 
z"/>
<path fill="#224573" opacity="1.000000" stroke="none" 
	d="
M1607.520752,386.651245 
	C1607.804321,391.457428 1607.804321,395.911499 1607.804321,400.868469 
	C1613.400635,400.868469 1618.324219,400.868469 1623.105225,400.868469 
	C1624.674438,407.169647 1624.147217,407.945679 1618.650513,407.994476 
	C1615.346436,408.023804 1612.041870,407.999847 1608.537476,407.999847 
	C1608.537476,417.293793 1608.103760,426.215576 1608.705444,435.066956 
	C1609.049072,440.122009 1612.195679,441.312256 1617.081787,439.400146 
	C1619.044556,438.632111 1620.925903,437.656494 1622.772339,436.808350 
	C1626.374268,442.199219 1625.757690,444.556427 1620.304688,446.272156 
	C1617.513550,447.150330 1614.549438,447.841278 1611.643799,447.923706 
	C1603.602173,448.151947 1600.157471,444.763123 1600.033936,436.602814 
	C1599.893066,427.306427 1600.001221,418.006256 1600.001221,408.445526 
	C1595.881714,407.691071 1589.886353,409.011200 1592.586670,401.272369 
	C1594.649536,401.119659 1596.921875,400.951447 1600.000000,400.723572 
	C1600.000000,398.128815 1599.998413,395.540100 1600.000244,392.951385 
	C1600.005249,385.645203 1600.026978,385.625824 1607.520752,386.651245 
z"/>
<path fill="#224573" opacity="1.000000" stroke="none" 
	d="
M1534.000000,430.995178 
	C1534.000000,434.487671 1534.003418,437.481903 1533.999268,440.476166 
	C1533.989746,447.290680 1533.945801,447.327698 1526.424805,446.686920 
	C1526.424805,431.714417 1526.424805,416.699890 1526.424805,401.666199 
	C1526.692627,401.502594 1527.045288,401.132324 1527.219727,401.202881 
	C1534.923950,404.318481 1542.099365,398.854065 1549.765869,399.880157 
	C1554.998901,400.580536 1556.415161,401.956329 1553.992310,406.707123 
	C1553.410034,407.849060 1551.107178,408.491577 1549.519775,408.663483 
	C1546.328125,409.009094 1542.959961,408.345184 1539.893799,409.068878 
	C1536.096924,409.965088 1533.783691,412.643738 1533.960083,417.024506 
	C1534.140625,421.508606 1534.000000,426.005615 1534.000000,430.995178 
z"/>
<path fill="#116DA9" opacity="1.000000" stroke="none" 
	d="
M226.952209,207.598297 
	C222.268982,210.257339 217.366577,212.517883 212.569092,214.982620 
	C207.583817,217.543839 202.699966,220.302475 197.393097,222.539764 
	C197.030533,212.115311 197.046631,202.125854 197.062729,192.136414 
	C206.968201,197.187454 216.873688,202.238480 226.952209,207.598297 
z"/>
<path fill="#224573" opacity="1.000000" stroke="none" 
	d="
M196.717529,192.197739 
	C197.046631,202.125854 197.030533,212.115311 197.036621,222.578094 
	C197.058807,223.051437 197.046600,223.041718 196.706482,223.028534 
	C195.909271,223.014938 195.452179,223.014496 194.995087,223.014053 
	C186.437378,217.930847 177.879684,212.847641 169.137665,207.490372 
	C178.093033,202.230560 187.232681,197.244812 196.717529,192.197739 
z"/>
<path fill="#224573" opacity="1.000000" stroke="none" 
	d="
M1569.000000,420.001404 
	C1569.000000,415.505310 1568.995972,411.508759 1569.000977,407.512238 
	C1569.009644,400.710846 1569.068726,400.661530 1576.587158,401.319336 
	C1576.587158,416.305664 1576.587158,431.332703 1576.587158,446.347595 
	C1569.596558,447.756042 1569.007446,447.298248 1569.001343,440.483643 
	C1568.995361,433.822754 1569.000000,427.161865 1569.000000,420.001404 
z"/>
<path fill="#224573" opacity="1.000000" stroke="none" 
	d="
M1578.756592,386.363098 
	C1575.944946,389.916779 1572.737793,391.324646 1569.198730,388.446167 
	C1566.602783,386.334717 1565.983765,383.064209 1568.390015,380.607361 
	C1569.846069,379.120544 1572.766479,377.907715 1574.691772,378.286316 
	C1578.481812,379.031677 1579.532715,382.289856 1578.756592,386.363098 
z"/>
<path fill="#116DA9" opacity="1.000000" stroke="none" 
	d="
M194.943161,223.428192 
	C195.452179,223.014496 195.909271,223.014938 196.709198,223.036362 
	C197.036835,235.687119 197.021606,248.316864 197.025589,261.405640 
	C195.895584,261.286957 194.746353,260.709229 193.300751,259.982574 
	C193.336243,250.441223 193.624527,241.046967 194.028152,231.657654 
	C194.140457,229.045013 194.594162,226.447052 194.943161,223.428192 
z"/>
<path fill="#16629A" opacity="1.000000" stroke="none" 
	d="
M47.261040,141.965668 
	C47.215878,141.780853 47.413380,141.499420 47.857811,141.126038 
	C47.904392,141.312408 47.704048,141.590744 47.261040,141.965668 
z"/>
<path fill="#195B91" opacity="1.000000" stroke="none" 
	d="
M82.766891,161.200409 
	C82.908684,161.458481 82.755760,161.658691 82.383148,161.911667 
	C82.070717,161.637894 82.173622,161.363937 82.766891,161.200409 
z"/>
<path fill="#166198" opacity="1.000000" stroke="none" 
	d="
M130.263168,188.968079 
	C130.218277,188.781403 130.417435,188.500000 130.865158,188.128784 
	C130.911560,188.317078 130.709381,188.595200 130.263168,188.968079 
z"/>
<path fill="#0F93CA" opacity="1.000000" stroke="none" 
	d="
M228.824097,208.746704 
	C228.544754,208.905411 228.342850,208.755844 228.096741,208.377304 
	C228.290802,208.305435 228.573792,208.402130 228.824097,208.746704 
z"/>
<path fill="#195B91" opacity="1.000000" stroke="none" 
	d="
M82.202576,284.233398 
	C82.463890,284.095276 82.663696,284.253510 82.911995,284.636597 
	C83.004532,284.805847 82.522202,284.819275 82.522202,284.819275 
	C82.522202,284.819275 82.185127,284.474091 82.202576,284.233398 
z"/>
<path fill="#0F8BC3" opacity="1.000000" stroke="none" 
	d="
M347.162292,300.260132 
	C347.493805,300.151276 347.707123,300.375275 347.893982,300.902069 
	C347.669464,300.928162 347.395020,300.724213 347.162292,300.260132 
z"/>

</svg>